<?xml version="1.0" encoding="UTF-8"?>
<svg width="800" height="300" viewBox="0 0 800 300" xmlns="http://www.w3.org/2000/svg">
  <!-- Background -->
  <defs>
    <linearGradient id="stadiumGradient" x1="0%" y1="0%" x2="100%" y2="100%">
      <stop offset="0%" stop-color="#111827" />
      <stop offset="100%" stop-color="#1f2937" />
    </linearGradient>
    <linearGradient id="pitchGradient" x1="0%" y1="0%" x2="100%" y2="100%">
      <stop offset="0%" stop-color="#064e3b" />
      <stop offset="50%" stop-color="#10b981" />
      <stop offset="100%" stop-color="#064e3b" />
    </linearGradient>
    <pattern id="seatPattern" width="6" height="6" patternUnits="userSpaceOnUse">
      <rect width="5" height="5" fill="#6d28d9" rx="1" />
    </pattern>
    <pattern id="seatPattern2" width="6" height="6" patternUnits="userSpaceOnUse">
      <rect width="5" height="5" fill="#a78bfa" rx="1" />
    </pattern>
    <pattern id="crowdPattern" width="10" height="10" patternUnits="userSpaceOnUse">
      <circle cx="5" cy="5" r="2" fill="#f1f5f9" />
    </pattern>
    <pattern id="grassPattern" width="30" height="30" patternUnits="userSpaceOnUse">
      <path d="M0,15 L30,15 M15,0 L15,30" stroke="#0d9868" stroke-width="0.5" opacity="0.5"/>
    </pattern>
    <filter id="glow" x="-20%" y="-20%" width="140%" height="140%">
      <feGaussianBlur stdDeviation="5" result="blur" />
      <feComposite in="SourceGraphic" in2="blur" operator="over" />
    </filter>
    <!-- Animated lights -->
    <filter id="softGlow" height="300%" width="300%" x="-100%" y="-100%">
      <feMorphology operator="dilate" radius="2" in="SourceAlpha" result="thicken" />
      <feGaussianBlur in="thicken" stdDeviation="5" result="blurred" />
      <feFlood flood-color="#ffffff" result="glowColor" />
      <feComposite in="glowColor" in2="blurred" operator="in" result="softGlow_colored" />
      <feComposite in="softGlow_colored" in2="SourceGraphic" operator="over" />
    </filter>
  </defs>

  <!-- Main Stadium Background -->
  <rect width="800" height="300" fill="url(#stadiumGradient)" rx="20" />
  
  <!-- Stadium Surroundings - Parking -->
  <rect x="20" y="30" width="760" height="240" rx="80" ry="80" fill="#1e293b" stroke="#475569" stroke-width="2" />
  <path d="M20,150 L40,150 M60,150 L80,150 M100,150 L120,150" stroke="#94a3b8" stroke-width="2" stroke-dasharray="5,10" />
  <path d="M680,150 L700,150 M720,150 L740,150 M760,150 L780,150" stroke="#94a3b8" stroke-width="2" stroke-dasharray="5,10" />
  
  <!-- Outer Stadium Structure - Less oval, more rectangular with rounded corners -->
  <rect x="50" y="60" width="700" height="180" rx="70" ry="70" fill="#4c1d95" stroke="#7c3aed" stroke-width="3" />
  
  <!-- Stadium Roof -->
  <path d="M80,60 C80,30 720,30 720,60" fill="none" stroke="#7c3aed" stroke-width="6" />
  
  <!-- Stands - Upper Tier -->
  <rect x="70" y="75" width="660" height="150" rx="60" ry="60" fill="#4c1d95" stroke="#7c3aed" stroke-width="2" />
  
  <!-- Stands - Lower Tier -->
  <rect x="90" y="90" width="620" height="120" rx="50" ry="50" fill="url(#seatPattern)" stroke="#8b5cf6" stroke-width="2" />
  
  <!-- Mid-Tier Stands -->
  <rect x="110" y="105" width="580" height="90" rx="40" ry="40" fill="url(#seatPattern2)" stroke="#a78bfa" stroke-width="2" />
  
  <!-- Stand Divisions - Vertical -->
  <line x1="400" y1="75" x2="400" y2="225" stroke="#7c3aed" stroke-width="3" />
  <line x1="250" y1="75" x2="250" y2="225" stroke="#7c3aed" stroke-width="2" />
  <line x1="550" y1="75" x2="550" y2="225" stroke="#7c3aed" stroke-width="2" />
  
  <!-- Stand Divisions - Horizontal -->
  <path d="M90,150 C90,130 710,130 710,150" fill="none" stroke="#7c3aed" stroke-width="2" />
  <path d="M90,150 C90,170 710,170 710,150" fill="none" stroke="#7c3aed" stroke-width="2" />
  
  <!-- Crowd Representation -->
  <rect x="130" y="120" width="540" height="60" rx="30" ry="30" fill="url(#crowdPattern)" stroke="#a78bfa" stroke-width="1" />
  
  <!-- Field -->
  <rect x="160" y="100" width="480" height="100" fill="url(#pitchGradient)" stroke="#ffffff" stroke-width="2" rx="5" />
  <rect x="160" y="100" width="480" height="100" fill="url(#grassPattern)" stroke="#ffffff" stroke-width="2" rx="5" opacity="0.3" />
  
  <!-- Field Markings -->
  <!-- Center Circle -->
  <circle cx="400" cy="150" r="30" fill="none" stroke="#ffffff" stroke-width="1.5" />
  <circle cx="400" cy="150" r="2" fill="#ffffff" />
  
  <!-- Center Line -->
  <line x1="400" y1="100" x2="400" y2="200" stroke="#ffffff" stroke-width="2" />
  
  <!-- Penalty Areas -->
  <!-- Left -->
  <rect x="160" y="115" width="60" height="70" fill="none" stroke="#ffffff" stroke-width="1.5" />
  <rect x="160" y="130" width="30" height="40" fill="none" stroke="#ffffff" stroke-width="1.5" />
  <circle cx="225" cy="150" r="2" fill="#ffffff" /> <!-- Penalty spot -->
  
  <!-- Right -->
  <rect x="580" y="115" width="60" height="70" fill="none" stroke="#ffffff" stroke-width="1.5" />
  <rect x="610" y="130" width="30" height="40" fill="none" stroke="#ffffff" stroke-width="1.5" />
  <circle cx="575" cy="150" r="2" fill="#ffffff" /> <!-- Penalty spot -->
  
  <!-- Goal Areas -->
  <rect x="160" y="135" width="10" height="30" fill="none" stroke="#ffffff" stroke-width="1.5" />
  <rect x="630" y="135" width="10" height="30" fill="none" stroke="#ffffff" stroke-width="1.5" />
  
  <!-- Corner Arcs -->
  <path d="M160,100 Q165,105 165,110" fill="none" stroke="#ffffff" stroke-width="1" />
  <path d="M160,200 Q165,195 165,190" fill="none" stroke="#ffffff" stroke-width="1" />
  <path d="M640,100 Q635,105 635,110" fill="none" stroke="#ffffff" stroke-width="1" />
  <path d="M640,200 Q635,195 635,190" fill="none" stroke="#ffffff" stroke-width="1" />
  
  <!-- Goals -->
  <rect x="154" y="135" width="6" height="30" fill="none" stroke="#ffffff" stroke-width="2" />
  <rect x="640" y="135" width="6" height="30" fill="none" stroke="#ffffff" stroke-width="2" />
  <line x1="154" y1="135" x2="148" y2="130" stroke="#ffffff" stroke-width="1" />
  <line x1="154" y1="165" x2="148" y2="170" stroke="#ffffff" stroke-width="1" />
  <line x1="148" y1="130" x2="148" y2="170" stroke="#ffffff" stroke-width="1" />
  <line x1="646" y1="135" x2="652" y2="130" stroke="#ffffff" stroke-width="1" />
  <line x1="646" y1="165" x2="652" y2="170" stroke="#ffffff" stroke-width="1" />
  <line x1="652" y1="130" x2="652" y2="170" stroke="#ffffff" stroke-width="1" />
  
  <!-- Stadium Lights -->
  <g filter="url(#glow)">
    <circle cx="100" cy="50" r="10" fill="#f9f9f9" />
    <circle cx="700" cy="50" r="10" fill="#f9f9f9" />
    <circle cx="100" cy="250" r="10" fill="#f9f9f9" />
    <circle cx="700" cy="250" r="10" fill="#f9f9f9" />
  </g>
  
  <!-- Additional Lights -->
  <g filter="url(#softGlow)">
    <circle cx="250" cy="40" r="5" fill="#f9f9f9" opacity="0.7" />
    <circle cx="400" cy="35" r="5" fill="#f9f9f9" opacity="0.7" />
    <circle cx="550" cy="40" r="5" fill="#f9f9f9" opacity="0.7" />
  </g>
  
  <!-- Light Beams -->
  <path d="M100,50 L160,100" stroke="#ffffff" stroke-width="0.7" opacity="0.4" />
  <path d="M100,50 L160,200" stroke="#ffffff" stroke-width="0.7" opacity="0.4" />
  <path d="M700,50 L640,100" stroke="#ffffff" stroke-width="0.7" opacity="0.4" />
  <path d="M700,50 L640,200" stroke="#ffffff" stroke-width="0.7" opacity="0.4" />
  <path d="M100,250 L160,200" stroke="#ffffff" stroke-width="0.7" opacity="0.4" />
  <path d="M100,250 L160,100" stroke="#ffffff" stroke-width="0.7" opacity="0.4" />
  <path d="M700,250 L640,200" stroke="#ffffff" stroke-width="0.7" opacity="0.4" />
  <path d="M700,250 L640,100" stroke="#ffffff" stroke-width="0.7" opacity="0.4" />
  
  <!-- Additional Light Beams -->
  <path d="M250,40 L300,100" stroke="#ffffff" stroke-width="0.5" opacity="0.3" />
  <path d="M250,40 L200,100" stroke="#ffffff" stroke-width="0.5" opacity="0.3" />
  <path d="M400,35 L350,100" stroke="#ffffff" stroke-width="0.5" opacity="0.3" />
  <path d="M400,35 L450,100" stroke="#ffffff" stroke-width="0.5" opacity="0.3" />
  <path d="M550,40 L500,100" stroke="#ffffff" stroke-width="0.5" opacity="0.3" />
  <path d="M550,40 L600,100" stroke="#ffffff" stroke-width="0.5" opacity="0.3" />
  
  <!-- Players on the field (abstract representation) -->
  <circle cx="370" cy="150" r="3" fill="#8b5cf6" stroke="#ffffff" stroke-width="0.5" />
  <circle cx="340" cy="130" r="3" fill="#8b5cf6" stroke="#ffffff" stroke-width="0.5" />
  <circle cx="340" cy="170" r="3" fill="#8b5cf6" stroke="#ffffff" stroke-width="0.5" />
  <circle cx="310" cy="150" r="3" fill="#8b5cf6" stroke="#ffffff" stroke-width="0.5" />
  <circle cx="200" cy="150" r="3" fill="#8b5cf6" stroke="#ffffff" stroke-width="0.5" />
  
  <circle cx="430" cy="150" r="3" fill="#f5f5f5" stroke="#000000" stroke-width="0.5" />
  <circle cx="460" cy="130" r="3" fill="#f5f5f5" stroke="#000000" stroke-width="0.5" />
  <circle cx="460" cy="170" r="3" fill="#f5f5f5" stroke="#000000" stroke-width="0.5" />
  <circle cx="490" cy="150" r="3" fill="#f5f5f5" stroke="#000000" stroke-width="0.5" />
  <circle cx="600" cy="150" r="3" fill="#f5f5f5" stroke="#000000" stroke-width="0.5" />
  
  <!-- Ball -->
  <circle cx="400" cy="150" r="2" fill="#ffffff" stroke="#000000" stroke-width="0.5" />
  
  <!-- Stadium Flags -->
  <line x1="50" y1="60" x2="50" y2="30" stroke="#7c3aed" stroke-width="2" />
  <path d="M50,30 L65,35 L50,40" fill="#8b5cf6" />
  <line x1="750" y1="60" x2="750" y2="30" stroke="#7c3aed" stroke-width="2" />
  <path d="M750,30 L765,35 L750,40" fill="#8b5cf6" />
  
  <!-- Enhanced Visitor Counter Frame -->
  <g transform="translate(250, 15)">
    <rect x="0" y="0" width="300" height="50" rx="5" fill="#4c1d95" stroke="#8b5cf6" stroke-width="2" />
    <rect x="5" y="5" width="290" height="40" rx="3" fill="#5b21b6" stroke="#a78bfa" stroke-width="1" />
    <text x="65" y="32" font-family="Arial, sans-serif" font-size="22" font-weight="bold" fill="#f1f5f9">VISITORS:</text>
    <text id="visitorCount" x="225" y="32" font-family="monospace" font-size="22" font-weight="bold" fill="#c4b5fd">12345</text>
  </g>
  
  <!-- Scoreboard -->
  <g transform="translate(350, 220)">
    <rect x="0" y="0" width="100" height="30" rx="3" fill="#4c1d95" stroke="#8b5cf6" stroke-width="1" />
    <text x="20" y="20" font-family="Arial, sans-serif" font-size="14" font-weight="bold" fill="#f1f5f9">0 - 0</text>
    <text x="15" y="10" font-family="Arial, sans-serif" font-size="8" font-weight="bold" fill="#c4b5fd">SCORE</text>
  </g>
  
  
  <!-- Script for counter animation -->
  <script type="text/javascript">
    // This would connect to your visitor count API
    // For demo purposes, we'll animate the visitor count
    const countElement = document.getElementById('visitorCount');
    let count = 10000;
    
    function updateCounter() {
      count += Math.floor(Math.random() * 10);
      countElement.textContent = count.toLocaleString();
      setTimeout(updateCounter, 3000);
    }
    
    updateCounter();
  </script>
</svg>
