<svg xmlns="http://www.w3.org/2000/svg" viewBox="0 0 400 400" width="400" height="400">
  <style>
    @keyframes rotate {
      0% { transform: rotateX(-30deg) rotateY(45deg); }
      50% { transform: rotateX(-30deg) rotateY(225deg); }
      100% { transform: rotateX(-30deg) rotateY(405deg); }
    }
    .cube {
      transform-style: preserve-3d;
      transform-origin: 100px 100px 0;
      animation: rotate 20s infinite linear;
    }
    .face {
      stroke: #8844ee;
      stroke-width: 2;
    }
  </style>
  
  <!-- Center the drawing -->
  <g transform="translate(100, 100)">
    <!-- The cube with animation -->
    <g class="cube">
      <!-- Front face -->
      <g transform="translate(0, 0)" class="face">
        <polygon points="0,0 200,0 200,200 0,200" fill="#2a2a40" />
        <image x="25" y="25" width="70" height="70" href="https://cdn.jsdelivr.net/gh/devicons/devicon/icons/android/android-original.svg" />
        <image x="105" y="25" width="70" height="70" href="https://cdn.jsdelivr.net/gh/devicons/devicon/icons/c/c-original.svg" />
        <image x="25" y="105" width="70" height="70" href="https://cdn.jsdelivr.net/gh/devicons/devicon/icons/figma/figma-original.svg" />
        <image x="105" y="105" width="70" height="70" href="https://cdn.jsdelivr.net/gh/devicons/devicon/icons/firebase/firebase-plain.svg" />
      </g>
      
      <!-- Right face -->
      <g transform="translate(200, 0) skewY(45) scale(0.707, 1)" class="face">
        <polygon points="0,0 200,0 200,200 0,200" fill="#252538" />
        <image x="25" y="25" width="70" height="70" href="https://cdn.jsdelivr.net/gh/devicons/devicon/icons/flutter/flutter-original.svg" />
        <image x="105" y="25" width="70" height="70" href="https://cdn.jsdelivr.net/gh/devicons/devicon/icons/googlecloud/googlecloud-original.svg" />
        <image x="25" y="105" width="70" height="70" href="https://cdn.jsdelivr.net/gh/devicons/devicon/icons/java/java-original.svg" />
        <image x="105" y="105" width="70" height="70" href="https://cdn.jsdelivr.net/gh/devicons/devicon/icons/pandas/pandas-original.svg" />
      </g>
      
      <!-- Top face -->
      <g transform="translate(0, 0) skewX(45) scale(1, 0.707)" class="face">
        <polygon points="0,0 200,0 200,200 0,200" fill="#1f1f30" />
        <image x="25" y="25" width="70" height="70" href="https://cdn.jsdelivr.net/gh/devicons/devicon/icons/python/python-original.svg" />
        <image x="105" y="25" width="70" height="70" href="https://cdn.jsdelivr.net/gh/devicons/devicon/icons/dart/dart-original.svg" />
        <image x="25" y="105" width="70" height="70" href="https://cdn.jsdelivr.net/gh/devicons/devicon/icons/androidstudio/androidstudio-original.svg" />
        <image x="105" y="105" width="70" height="70" href="https://cdn.jsdelivr.net/gh/devicons/devicon/icons/arduino/arduino-original.svg" />
      </g>
    </g>
  </g>
</svg>