<svg xmlns="http://www.w3.org/2000/svg" xmlns:xlink="http://www.w3.org/1999/xlink" viewBox="0 0 600 600">
    <defs>
      <!-- Define filters for 3D effect -->
      <filter id="shadow" x="-20%" y="-20%" width="140%" height="140%">
        <feDropShadow dx="2" dy="2" stdDeviation="4" flood-opacity="0.3"/>
      </filter>
      
      <!-- Define patterns for the tech icons -->
      
      <pattern id="tech-0" patternUnits="userSpaceOnUse" width="100" height="100">
        <image xlink:href="https://cdn.jsdelivr.net/gh/devicons/devicon/icons/android/android-original.svg" x="15" y="15" width="70" height="70" />
      </pattern>
      <pattern id="tech-1" patternUnits="userSpaceOnUse" width="100" height="100">
        <image xlink:href="https://cdn.jsdelivr.net/gh/devicons/devicon/icons/c/c-original.svg" x="15" y="15" width="70" height="70" />
      </pattern>
      <pattern id="tech-2" patternUnits="userSpaceOnUse" width="100" height="100">
        <image xlink:href="https://cdn.jsdelivr.net/gh/devicons/devicon/icons/figma/figma-original.svg" x="15" y="15" width="70" height="70" />
      </pattern>
      <pattern id="tech-3" patternUnits="userSpaceOnUse" width="100" height="100">
        <image xlink:href="https://cdn.jsdelivr.net/gh/devicons/devicon/icons/firebase/firebase-plain.svg" x="15" y="15" width="70" height="70" />
      </pattern>
      <pattern id="tech-4" patternUnits="userSpaceOnUse" width="100" height="100">
        <image xlink:href="https://cdn.jsdelivr.net/gh/devicons/devicon/icons/flutter/flutter-original.svg" x="15" y="15" width="70" height="70" />
      </pattern>
      <pattern id="tech-5" patternUnits="userSpaceOnUse" width="100" height="100">
        <image xlink:href="https://cdn.jsdelivr.net/gh/devicons/devicon/icons/googlecloud/googlecloud-original.svg" x="15" y="15" width="70" height="70" />
      </pattern>
      <pattern id="tech-6" patternUnits="userSpaceOnUse" width="100" height="100">
        <image xlink:href="https://cdn.jsdelivr.net/gh/devicons/devicon/icons/java/java-original.svg" x="15" y="15" width="70" height="70" />
      </pattern>
      <pattern id="tech-7" patternUnits="userSpaceOnUse" width="100" height="100">
        <image xlink:href="https://cdn.jsdelivr.net/gh/devicons/devicon/icons/pandas/pandas-original.svg" x="15" y="15" width="70" height="70" />
      </pattern>
      <pattern id="tech-8" patternUnits="userSpaceOnUse" width="100" height="100">
        <image xlink:href="https://cdn.jsdelivr.net/gh/devicons/devicon/icons/python/python-original.svg" x="15" y="15" width="70" height="70" />
      </pattern>
      <pattern id="tech-9" patternUnits="userSpaceOnUse" width="100" height="100">
        <image xlink:href="https://cdn.jsdelivr.net/gh/devicons/devicon/icons/dart/dart-original.svg" x="15" y="15" width="70" height="70" />
      </pattern>
      <pattern id="tech-10" patternUnits="userSpaceOnUse" width="100" height="100">
        <image xlink:href="https://cdn.jsdelivr.net/gh/devicons/devicon/icons/androidstudio/androidstudio-original.svg" x="15" y="15" width="70" height="70" />
      </pattern>
      <pattern id="tech-11" patternUnits="userSpaceOnUse" width="100" height="100">
        <image xlink:href="https://cdn.jsdelivr.net/gh/devicons/devicon/icons/arduino/arduino-original.svg" x="15" y="15" width="70" height="70" />
      </pattern>
    </defs>
    
    <style>
      @keyframes rotate3d {
        0% { transform: rotate3d(0.5, 1, 0.3, 0deg); }
        100% { transform: rotate3d(0.5, 1, 0.3, 360deg); }
      }
      
      .cube {
        transform-style: preserve-3d;
        transform-origin: 300px 300px;
        animation: rotate3d 20s infinite linear;
      }
      
      .face {
        stroke: #8844ee;
        stroke-width: 2px;
        filter: url(#shadow);
      }
    </style>
    
    <!-- Cube group with animation -->
    <g class="cube">
      <!-- Front face -->
      <g transform="translate(200, 200)">
        <rect class="face" width="200" height="200" fill="#2a2a40" />
        <!-- 2x2 grid of cells with tech icons -->
        <rect x="0" y="0" width="100" height="100" fill="url(#tech-0)" stroke="#8844ee" />
        <rect x="100" y="0" width="100" height="100" fill="url(#tech-1)" stroke="#8844ee" />
        <rect x="0" y="100" width="100" height="100" fill="url(#tech-2)" stroke="#8844ee" />
        <rect x="100" y="100" width="100" height="100" fill="url(#tech-3)" stroke="#8844ee" />
      </g>
      
      <!-- Right face - with skew transform -->
      <g transform="translate(400, 200) skewY(45) scale(0.707, 1)">
        <rect class="face" width="200" height="200" fill="#252538" />
        <!-- 2x2 grid of cells with tech icons -->
        <rect x="0" y="0" width="100" height="100" fill="url(#tech-4)" stroke="#8844ee" />
        <rect x="100" y="0" width="100" height="100" fill="url(#tech-5)" stroke="#8844ee" />
        <rect x="0" y="100" width="100" height="100" fill="url(#tech-6)" stroke="#8844ee" />
        <rect x="100" y="100" width="100" height="100" fill="url(#tech-7)" stroke="#8844ee" />
      </g>
      
      <!-- Top face - with skew transform -->
      <g transform="translate(200, 200) skewX(45) scale(1, 0.707) translate(0, -200)">
        <rect class="face" width="200" height="200" fill="#1f1f30" />
        <!-- 2x2 grid of cells with tech icons -->
        <rect x="0" y="0" width="100" height="100" fill="url(#tech-8)" stroke="#8844ee" />
        <rect x="100" y="0" width="100" height="100" fill="url(#tech-9)" stroke="#8844ee" />
        <rect x="0" y="100" width="100" height="100" fill="url(#tech-10)" stroke="#8844ee" />
        <rect x="100" y="100" width="100" height="100" fill="url(#tech-11)" stroke="#8844ee" />
      </g>
    </g>
  </svg>