<svg xmlns="http://www.w3.org/2000/svg" version="1.1" xmlns:xlink="http://www.w3.org/1999/xlink" xmlns:svgjs="http://svgjs.com/svgjs" width="800" height="400"><polygon points="400,20 580,110 400,200 220,110" fill="#3a3a3a" stroke-width="2" stroke="#8844ee"></polygon><polygon points="580,110 580,290 400,380 400,200" fill="#2d2d2d" stroke-width="2" stroke="#8844ee"></polygon><polygon points="400,200 400,380 220,290 220,110" fill="#252525" stroke-width="2" stroke="#8844ee"></polygon><image width="40" height="40" xlink:href="https://cdn.jsdelivr.net/gh/devicons/devicon/icons/android/android-original.svg" x="320" y="60"></image><image width="40" height="40" xlink:href="https://cdn.jsdelivr.net/gh/devicons/devicon/icons/c/c-original.svg" x="440" y="60"></image><image width="40" height="40" xlink:href="https://cdn.jsdelivr.net/gh/devicons/devicon/icons/figma/figma-original.svg" x="335" y="120"></image><image width="40" height="40" xlink:href="https://cdn.jsdelivr.net/gh/devicons/devicon/icons/firebase/firebase-plain.svg" x="425" y="120"></image><image width="40" height="40" xlink:href="https://cdn.jsdelivr.net/gh/devicons/devicon/icons/flutter/flutter-original.svg" x="500" y="135"></image><image width="40" height="40" xlink:href="https://cdn.jsdelivr.net/gh/devicons/devicon/icons/googlecloud/googlecloud-original.svg" x="500" y="225"></image><image width="40" height="40" xlink:href="https://cdn.jsdelivr.net/gh/devicons/devicon/icons/java/java-original.svg" x="440" y="180"></image><image width="40" height="40" xlink:href="https://cdn.jsdelivr.net/gh/devicons/devicon/icons/pandas/pandas-original.svg" x="440" y="240"></image><image width="40" height="40" xlink:href="https://cdn.jsdelivr.net/gh/devicons/devicon/icons/python/python-original.svg" x="320" y="240"></image><image width="40" height="40" xlink:href="https://cdn.jsdelivr.net/gh/devicons/devicon/icons/dart/dart-original.svg" x="260" y="225"></image><image width="40" height="40" xlink:href="https://cdn.jsdelivr.net/gh/devicons/devicon/icons/androidstudio/androidstudio-original.svg" x="260" y="135"></image><image width="40" height="40" xlink:href="https://cdn.jsdelivr.net/gh/devicons/devicon/icons/arduino/arduino-original.svg" x="320" y="180"></image><style>
        @keyframes rotate {
          0% { transform: translateX(0px) translateY(0px); }
          25% { transform: translateX(5px) translateY(-5px); }
          50% { transform: translateX(0px) translateY(0px); }
          75% { transform: translateX(-5px) translateY(5px); }
          100% { transform: translateX(0px) translateY(0px); }
        }
        #container { animation: rotate 8s ease-in-out infinite; }
      </style><text font-family="Arial" font-size="24" font-weight="bold" fill="#8844ee" x="321" y="40.79999923706055" svgjs:data="{&quot;leading&quot;:&quot;1.3&quot;}"><tspan dy="31.200000000000003" x="321" svgjs:data="{&quot;leading&quot;:&quot;1.3&quot;,&quot;newLined&quot;:true}">Tech Stack</tspan></text></svg>


